<svg height="3.92cm" preserveAspectRatio="none" viewBox="0 0 37 37" width="3.92cm" xmlns="http://www.w3.org/2000/svg"><path d="m0 0h37v37h-37z" fill="#fff"/><path d="m0 0h7m2 0h1m2 0h3m1 0h2m2 0h1m1 0h7m-29 1h1m5 0h1m3 0h3m1 0h2m6 0h1m5 0h1m-29 1h1m1 0h3m1 0h1m1 0h3m1 0h3m1 0h1m1 0h3m1 0h1m1 0h3m1 0h1m-29 1h1m1 0h3m1 0h1m2 0h3m1 0h2m1 0h2m1 0h1m2 0h1m1 0h3m1 0h1m-29 1h1m1 0h3m1 0h1m3 0h1m3 0h3m1 0h1m1 0h1m1 0h1m1 0h3m1 0h1m-29 1h1m5 0h1m2 0h1m3 0h1m3 0h1m1 0h1m2 0h1m5 0h1m-29 1h7m1 0h1m1 0h1m1 0h1m1 0h1m1 0h1m1 0h1m1 0h1m1 0h7m-21 1h3m1 0h4m1 0h3m-20 1h3m1 0h5m1 0h2m2 0h1m2 0h1m2 0h3m3 0h1m-25 1h2m1 0h1m2 0h1m1 0h2m2 0h2m1 0h6m3 0h1m-26 1h3m2 0h1m2 0h1m3 0h1m1 0h3m1 0h1m2 0h5m1 0h1m-29 1h1m2 0h2m2 0h1m3 0h1m4 0h2m1 0h3m6 0h1m-29 1h2m4 0h3m3 0h1m2 0h2m1 0h1m1 0h1m-20 1h4m2 0h1m3 0h3m1 0h1m3 0h1m2 0h2m1 0h1m-24 1h2m2 0h1m1 0h1m2 0h2m1 0h1m4 0h2m4 0h1m2 0h1m-29 1h1m1 0h2m1 0h1m2 0h2m2 0h11m1 0h1m-24 1h2m2 0h2m4 0h1m2 0h1m3 0h1m2 0h2m1 0h1m1 0h3m-27 1h4m1 0h5m2 0h1m1 0h3m2 0h1m1 0h4m-27 1h1m1 0h2m2 0h5m2 0h1m2 0h1m1 0h1m1 0h3m1 0h1m3 0h1m-28 1h1m3 0h1m2 0h1m1 0h2m3 0h4m1 0h2m1 0h1m1 0h2m-27 1h1m1 0h1m3 0h3m3 0h1m2 0h1m4 0h6m1 0h2m-21 1h2m1 0h3m2 0h5m3 0h1m1 0h2m-28 1h7m1 0h1m1 0h3m1 0h3m1 0h3m1 0h1m1 0h1m1 0h3m-29 1h1m5 0h1m1 0h3m1 0h3m2 0h1m2 0h1m3 0h5m-29 1h1m1 0h3m1 0h1m1 0h1m2 0h1m2 0h1m1 0h1m1 0h1m1 0h7m-27 1h1m1 0h3m1 0h1m2 0h1m1 0h1m2 0h4m1 0h1m1 0h1m2 0h1m1 0h1m-27 1h1m1 0h3m1 0h1m1 0h1m4 0h1m1 0h1m1 0h1m2 0h1m1 0h2m1 0h2m1 0h1m-29 1h1m5 0h1m1 0h1m2 0h1m5 0h3m2 0h2m3 0h2m-29 1h7m1 0h2m2 0h1m2 0h2m1 0h1m2 0h1m1 0h2m3 0h1" stroke="#000" transform="translate(4 4.5)"/></svg>